<svg xmlns="http://www.w3.org/2000/svg" viewBox="0 0 671 576" width="671" height="576">
	<defs>
		<clipPath clipPathUnits="userSpaceOnUse" id="cp1">
			<path d="M-179 -2321L1021 -2321L1021 5399L-179 5399Z" />
		</clipPath>
	</defs>
	<style>
		tspan { white-space:pre }
		.shp0 { fill: none;stroke: #f2f2f2;stroke-width: 47.556 } 
	</style>
	<g id="Page 1" clip-path="url(#cp1)">
		<path id="Path 9" class="shp0" d="M322.41 95.88C326.31 99.05 328.52 101.26 330.23 102.72L330.23 102.97C330.47 103.21 330.96 103.46 331.21 103.7C331.46 104.19 331.7 104.69 332.18 104.92C332.18 104.92 332.18 105.17 332.67 105.17C333.16 105.66 333.65 105.66 334.39 105.9L334.62 106.15L334.62 106.39C335.11 106.64 335.62 106.64 335.62 106.64C336.59 106.88 337.08 106.88 337.08 106.88L337.57 106.88L338.54 106.88L339.28 106.88C339.77 106.64 340.26 106.64 340.5 106.64C342.45 105.9 344.16 104.92 345.39 103.46C345.39 103.46 347.83 100.52 352.96 95.39C368.86 80.23 407.48 50.17 463.46 51.39C486.44 52.12 511.87 57.75 540.96 72.17C610.39 106.88 623.34 165.3 622.85 212.73C621.63 245.25 613.31 271.41 611.36 277.51C610.87 280.44 609.9 282.9 608.91 285.59C607.93 289.25 606.72 292.43 605.49 295.85L614.05 299.03L605.49 295.85C578.84 368.46 507.47 426.4 443.91 467.7C401.36 495.57 330.72 525.64 325.59 527.84C175.24 457.44 92.12 366.99 63.28 287.05L63.03 286.8C53.26 261.87 47.87 232.29 48.61 202.47C51.05 134.75 82.34 68.74 159.59 52.37C174.75 49.43 188.68 48.21 201.89 48.7C241.24 49.43 273.27 63.37 296.25 77.3C307.74 83.9 316.54 90.99 322.41 95.88Z" />
	</g>
</svg>