<svg xmlns="http://www.w3.org/2000/svg" viewBox="0 0 251 181" width="251" height="181">
	<defs>
		<clipPath clipPathUnits="userSpaceOnUse" id="cp1">
			<path d="M-115 -5088L1085 -5088L1085 2632L-115 2632Z" />
		</clipPath>
	</defs>
	<style>
		tspan { white-space:pre }
		.shp0 { fill: none;stroke: #b7f9de;stroke-width: 8 } 
	</style>
	<g id="Page 1" clip-path="url(#cp1)">
		<path id="Path 97" class="shp0" d="M230.58 8.59C224.1 8.59 218.87 13.82 218.87 20.29L218.87 74.57L186.03 114C183.83 116.63 179.81 116.82 177.4 114.4L172.72 109.72C170.67 107.67 170.41 104.42 172.17 102.08L186.1 83.5C189.98 78.34 188.92 70.98 183.76 67.11C178.6 63.23 171.25 64.29 167.38 69.45L146.31 97.54C140.24 105.66 136.94 115.5 136.94 125.63L136.94 166.59C136.94 169.81 139.58 172.45 142.8 172.45L190.97 172.45C193.56 172.45 195.9 170.73 196.56 168.21C197.29 165.35 198.54 162.64 200.37 160.27L238.44 111.15C240.93 108.04 242.28 104.16 242.28 100.17L242.28 20.29C242.28 13.82 237.05 8.59 230.58 8.59ZM83.11 69.45C79.23 64.29 71.88 63.23 66.72 67.11C61.56 70.98 60.5 78.34 64.38 83.5L78.31 102.08C80.07 104.42 79.81 107.67 77.77 109.72L73.08 114.4C70.63 116.85 66.65 116.67 64.45 114L31.61 74.57L31.61 20.29C31.61 13.82 26.38 8.59 19.9 8.59C13.43 8.59 8.2 13.82 8.2 20.29L8.2 100.17C8.2 104.16 9.55 108.04 12.04 111.15L50.11 160.27C51.94 162.64 53.19 165.35 53.92 168.21C54.58 170.73 56.88 172.45 59.51 172.45L107.68 172.45C110.9 172.45 113.54 169.81 113.54 166.59L113.54 125.63C113.54 115.5 110.24 105.66 104.17 97.54L83.11 69.45Z" />
	</g>
</svg>