<svg xmlns="http://www.w3.org/2000/svg" viewBox="0 0 232 208" width="232" height="208">
	<defs>
		<clipPath clipPathUnits="userSpaceOnUse" id="cp1">
			<path d="M-830 -5875L370 -5875L370 1845L-830 1845Z" />
		</clipPath>
	</defs>
	<style>
		tspan { white-space:pre }
		.shp0 { fill: none;stroke: #8bdcef;stroke-width: 8 } 
	</style>
	<g id="Page 1" clip-path="url(#cp1)">
		<path id="Path 103" class="shp0" d="M219.56 131.17C215.15 127.17 208.28 127.43 203.65 131.17L169.15 158.76C164.93 162.16 159.66 163.99 154.21 163.99L110.04 163.99C106.75 163.99 104.06 161.3 104.06 158.02C104.06 154.73 106.75 152.04 110.04 152.04L139.27 152.04C145.21 152.04 150.74 147.97 151.71 142.11C152.94 134.64 147.19 128.14 139.91 128.14L80.16 128.14C70.08 128.14 60.34 131.62 52.5 137.96L35.13 152.04L14.44 152.04C11.16 152.04 8.47 154.73 8.47 158.02L8.47 193.86C8.47 197.15 11.16 199.84 14.44 199.84L147.68 199.84C153.09 199.84 158.35 198.01 162.61 194.61L219.07 149.43C224.75 144.91 225.19 136.25 219.56 131.17ZM111.27 102.19C113.88 104.96 118.14 104.96 120.79 102.19L161.45 59.55C173.25 47.15 172.58 26.62 159.36 15.19C147.86 5.22 130.72 7.01 120.19 18.06L116.01 22.43L111.87 18.1C101.34 7.01 84.2 5.22 72.7 15.19C59.51 26.62 58.81 47.15 70.6 59.55L111.27 102.19Z" />
	</g>
</svg>