<svg width="46" height="46" viewBox="0 0 46 46" fill="none" xmlns="http://www.w3.org/2000/svg">
<path fill-rule="evenodd" clip-rule="evenodd" d="M32.43 45.33H12.9C5.77999 45.33 0 39.54 0 32.43V12.9C0 5.79 5.77999 0 12.9 0H32.43C39.54 0 45.33 5.79 45.33 12.9V32.43C45.33 39.54 39.54 45.33 32.43 45.33ZM12.9 3.89C7.92999 3.89 3.88 7.93 3.88 12.9V32.43C3.88 37.4 7.92999 41.44 12.9 41.44H32.43C37.4 41.44 41.44 37.4 41.44 32.43V12.9C41.44 7.93 37.4 3.89 32.43 3.89H12.9Z" fill="white"/>
<path fill-rule="evenodd" clip-rule="evenodd" d="M21.99 34.66C15.59 34.66 10.39 29.46 10.39 23.05C10.39 16.66 15.59 11.45 21.99 11.45C28.39 11.45 33.6 16.66 33.6 23.05C33.6 29.46 28.39 34.66 21.99 34.66ZM21.99 15.33C17.74 15.33 14.27 18.8 14.27 23.05C14.27 27.31 17.74 30.78 21.99 30.78C26.25 30.78 29.71 27.31 29.71 23.05C29.71 18.8 26.25 15.33 21.99 15.33ZM36.89 10.79C36.89 12.33 35.64 13.58 34.1 13.58C32.56 13.58 31.31 12.33 31.31 10.79C31.31 9.24 32.56 8 34.1 8C35.64 8 36.89 9.24 36.89 10.79Z" fill="white"/>
</svg>
