<svg xmlns="http://www.w3.org/2000/svg" viewBox="0 0 74 74" width="74" height="74">
	<defs>
		<clipPath clipPathUnits="userSpaceOnUse" id="cp1">
			<path d="M-825 -6720L375 -6720L375 1000L-825 1000Z" />
		</clipPath>
	</defs>
	<style>
		tspan { white-space:pre }
		.shp0 { fill: #fca930 } 
	</style>
	<g id="Page 1" clip-path="url(#cp1)">
		<path id="Path 131" fill-rule="evenodd" class="shp0" d="M73.21 8.48L73.21 65.26C73.21 69.53 69.74 73 65.46 73L8.68 73C4.41 73 0.94 69.53 0.94 65.26L0.94 8.48C0.94 4.2 4.41 0.73 8.68 0.73L65.46 0.73C69.74 0.73 73.21 4.2 73.21 8.48ZM65.46 64.29L65.46 9.44C65.46 8.91 65.03 8.48 64.5 8.48L9.65 8.48C9.12 8.48 8.68 8.91 8.68 9.44L8.68 64.29C8.68 64.82 9.12 65.26 9.65 65.26L64.5 65.26C65.03 65.26 65.46 64.82 65.46 64.29ZM57.72 34.29L57.72 39.45C57.72 40.51 56.85 41.38 55.79 41.38L41.59 41.38L41.59 55.58C41.59 56.64 40.72 57.51 39.66 57.51L34.49 57.51C33.43 57.51 32.56 56.64 32.56 55.58L32.56 41.38L18.36 41.38C17.3 41.38 16.43 40.51 16.43 39.45L16.43 34.29C16.43 33.22 17.3 32.35 18.36 32.35L32.56 32.35L32.56 18.16C32.56 17.09 33.43 16.22 34.49 16.22L39.66 16.22C40.72 16.22 41.59 17.09 41.59 18.16L41.59 32.35L55.79 32.35C56.85 32.35 57.72 33.22 57.72 34.29Z" />
	</g>
</svg>