<svg xmlns="http://www.w3.org/2000/svg" viewBox="0 0 84 73" width="84" height="73">
	<defs>
		<clipPath clipPathUnits="userSpaceOnUse" id="cp1">
			<path d="M-295 -6721L905 -6721L905 999L-295 999Z" />
		</clipPath>
	</defs>
	<style>
		tspan { white-space:pre }
		.shp0 { fill: none;stroke: #f75757;stroke-width: 7.526 } 
	</style>
	<g id="Page 1" clip-path="url(#cp1)">
		<path id="Path 130" class="shp0" d="M40.44 13.97C40.9 14.34 41.16 14.6 41.36 14.77L41.36 14.8C41.38 14.83 41.44 14.86 41.47 14.89C41.5 14.94 41.53 15 41.58 15.03C41.58 15.03 41.58 15.06 41.64 15.06C41.7 15.12 41.76 15.12 41.84 15.14L41.87 15.17L41.87 15.2C41.93 15.23 41.99 15.23 41.99 15.23C42.1 15.26 42.16 15.26 42.16 15.26L42.21 15.26L42.33 15.26L42.41 15.26C42.47 15.23 42.53 15.23 42.56 15.23C42.78 15.14 42.98 15.03 43.13 14.86C43.13 14.86 43.41 14.51 44.01 13.91C45.87 12.14 50.39 8.63 56.93 8.77C59.62 8.85 62.6 9.51 66 11.2C74.12 15.26 75.63 22.09 75.57 27.64C75.43 31.44 74.46 34.5 74.23 35.21C74.17 35.55 74.06 35.84 73.94 36.16C73.83 36.58 73.69 36.96 73.54 37.35L74.54 37.73L73.54 37.35C70.43 45.85 62.08 52.62 54.65 57.45C49.67 60.71 41.41 64.22 40.81 64.48C23.23 56.25 13.51 45.67 10.14 36.33L10.11 36.3C8.97 33.38 8.34 29.92 8.43 26.43C8.71 18.52 12.37 10.8 21.4 8.88C23.18 8.54 24.8 8.4 26.35 8.45C30.95 8.54 34.7 10.17 37.38 11.8C38.73 12.57 39.76 13.4 40.44 13.97Z" />
	</g>
</svg>