<svg width="43" height="35" viewBox="0 0 43 35" fill="none" xmlns="http://www.w3.org/2000/svg">
<path d="M37.76 9.63C37.76 9.25 37.75 8.88 37.74 8.51C39.42 7.3 40.88 5.78 42.04 4.05C40.49 4.73 38.83 5.2 37.08 5.4C38.87 4.34 40.23 2.65 40.88 0.63C39.21 1.62 37.37 2.34 35.4 2.73C33.83 1.05 31.59 0 29.1 0C24.34 0 20.48 3.86 20.48 8.63C20.48 9.3 20.56 9.96 20.7 10.59C13.54 10.23 7.18 6.8 2.92 1.58C2.18 2.85 1.76 4.34 1.76 5.92C1.76 8.91 3.28 11.55 5.59 13.1C4.18 13.05 2.85 12.67 1.69 12.02V12.13C1.69 16.31 4.66 19.79 8.61 20.58C7.88 20.78 7.12 20.89 6.33 20.89C5.78 20.89 5.24 20.83 4.71 20.73C5.81 24.16 8.99 26.65 12.77 26.72C9.82 29.03 6.10001 30.41 2.06001 30.41C1.36001 30.41 0.67 30.37 0 30.29C3.81 32.74 8.35 34.17 13.22 34.17C29.08 34.17 37.76 21.03 37.76 9.63Z" fill="white"/>
</svg>
