<svg width="52" height="37" viewBox="0 0 52 37" fill="none" xmlns="http://www.w3.org/2000/svg">
<path fill-rule="evenodd" clip-rule="evenodd" d="M51.91 18.16C51.91 18.16 51.91 26.61 50.82 30.66C50.22 32.89 48.47 34.65 46.23 35.25C42.19 36.33 25.95 36.33 25.95 36.33C25.95 36.33 9.72001 36.33 5.67001 35.25C3.44001 34.65 1.68003 32.89 1.09003 30.66C2.68221e-05 26.61 0 18.16 0 18.16C0 18.16 2.68221e-05 9.72 1.09003 5.67C1.68003 3.44 3.44001 1.68 5.67001 1.08C9.72001 -1.19209e-07 25.95 0 25.95 0C25.95 0 42.19 -1.19209e-07 46.23 1.08C48.47 1.68 50.22 3.44 50.82 5.67C51.91 9.72 51.91 18.16 51.91 18.16ZM34.25 18.16L20.76 10.38V25.95L34.25 18.16Z" fill="white"/>
</svg>
