<svg xmlns="http://www.w3.org/2000/svg" viewBox="0 0 33 27" width="33" height="27">
	<defs>
		<clipPath clipPathUnits="userSpaceOnUse" id="cp1">
			<path d="M-582 -2162L618 -2162L618 5558L-582 5558Z" />
		</clipPath>
	</defs>
	<style>
		tspan { white-space:pre }
		.shp0 { fill: #f95c50 } 
	</style>
	<g id="Page 1" clip-path="url(#cp1)">
		<path id="Path 26" class="shp0" d="M15.82 2.69C16.03 2.87 16.16 2.99 16.25 3.07L16.25 3.08C16.26 3.09 16.29 3.11 16.3 3.12C16.32 3.15 16.33 3.17 16.36 3.19C16.36 3.19 16.36 3.2 16.38 3.2C16.41 3.23 16.44 3.23 16.48 3.24L16.49 3.25L16.49 3.27C16.52 3.28 16.54 3.28 16.54 3.28C16.6 3.29 16.62 3.29 16.62 3.29L16.65 3.29L16.7 3.29L16.74 3.29C16.77 3.28 16.8 3.28 16.81 3.28C16.92 3.24 17.01 3.19 17.08 3.11C17.08 3.11 17.21 2.95 17.49 2.67C18.36 1.84 20.46 0.2 23.52 0.27C24.77 0.3 26.16 0.61 27.75 1.4C31.54 3.29 32.24 6.48 32.22 9.07C32.15 10.84 31.7 12.27 31.59 12.6C31.56 12.76 31.51 12.9 31.46 13.04C31.4 13.24 31.34 13.42 31.27 13.6L31.74 13.78L31.27 13.6C29.82 17.57 25.92 20.73 22.45 22.98C20.13 24.5 16.28 26.14 16 26.26C7.79 22.42 3.26 17.49 1.68 13.12L1.67 13.11C1.14 11.75 0.84 10.14 0.88 8.51C1.02 4.81 2.72 1.21 6.94 0.32C7.76 0.16 8.53 0.09 9.25 0.12C11.39 0.16 13.14 0.92 14.39 1.68C15.02 2.04 15.5 2.43 15.82 2.69Z" />
	</g>
</svg>